# xmcd CD database file
#
# Track frame offsets:
#	150
#	20475
#	43395
#	63735
#
# Disc length: 1153 seconds
#
# Revision: 0
# Processed by: cddbd v1.5.1PL0 Copyright (c) Steve Scherf et al.
# Submitted via: CDex 1.51
#
DISCID=37047f04
DTITLE=三浦理恵子 - 神様からもらったチャンス
DYEAR=1992
DGENRE=Pop
TTITLE0=神様からもらったチャンス
TTITLE1=永遠のひとひら
TTITLE2=神様からもらったチャンス (カラオケ)
TTITLE3=永遠のひとひら (カラオケ)
EXTD=YEAR: 1992
EXTT0=
EXTT1=
EXTT2=
EXTT3=
PLAYORDER=
